<svg width="32" height="32" viewBox="0 0 32 32" fill="none" xmlns="http://www.w3.org/2000/svg">
<path d="M12.1198 12C12.4333 11.1089 13.052 10.3575 13.8664 9.87884C14.6808 9.40021 15.6384 9.22525 16.5694 9.38495C17.5004 9.54465 18.3449 10.0287 18.9533 10.7514C19.5616 11.474 19.8946 12.3887 19.8932 13.3333C19.8932 16 15.8932 17.3333 15.8932 17.3333M15.9998 22.6667H16.0132M29.3332 16C29.3332 23.3638 23.3636 29.3333 15.9998 29.3333C8.63604 29.3333 2.6665 23.3638 2.6665 16C2.6665 8.6362 8.63604 2.66667 15.9998 2.66667C23.3636 2.66667 29.3332 8.6362 29.3332 16Z" stroke="#1E1E1E" stroke-width="3" stroke-linecap="round" stroke-linejoin="round"/>
</svg>
