<svg width="32" height="32" viewBox="0 0 32 32" fill="none" xmlns="http://www.w3.org/2000/svg">
<path d="M12.1198 12.0001C12.4333 11.109 13.052 10.3576 13.8664 9.87893C14.6808 9.40029 15.6384 9.22533 16.5694 9.38503C17.5004 9.54473 18.3449 10.0288 18.9533 10.7515C19.5616 11.4741 19.8946 12.3888 19.8932 13.3334C19.8932 16.0001 15.8932 17.3334 15.8932 17.3334M15.9998 22.6667H16.0132M29.3332 16.0001C29.3332 23.3639 23.3636 29.3334 15.9998 29.3334C8.63604 29.3334 2.6665 23.3639 2.6665 16.0001C2.6665 8.63628 8.63604 2.66675 15.9998 2.66675C23.3636 2.66675 29.3332 8.63628 29.3332 16.0001Z" stroke="#1E1E1E" stroke-width="3" stroke-linecap="round" stroke-linejoin="round"/>
</svg>
